<?xml version="1.0" standalone="no"?>
<!DOCTYPE svg PUBLIC "-//W3C//DTD SVG 20010904//EN" "http://www.w3.org/TR/2001/REC-SVG-20010904/DTD/svg10.dtd">
<svg version="1.0" xmlns="http://www.w3.org/2000/svg"
    width="204.000000pt" height="192.000000pt" viewBox="0 0 204.000000 192.000000"
    preserveAspectRatio="xMidYMid meet">

    <g transform="translate(0.000000,192.000000) scale(0.100000,-0.100000)"
        fill="#000000" stroke="none">
        <path
            d="M139 1182 c-224 -117 -155 -454 95 -470 107 -7 212 57 252 154 18 43
18 145 0 188 -56 133 -221 194 -347 128z" />
        <path
            d="M919 1182 c-93 -48 -150 -155 -135 -253 10 -68 62 -148 119 -183 123
-75 299 -22 358 109 22 48 25 151 5 199 -56 133 -221 194 -347 128z" />
        <path
            d="M1685 1187 c-55 -26 -110 -82 -131 -133 -18 -43 -18 -145 0 -188 8
-19 30 -52 50 -74 111 -122 308 -104 393 37 55 92 55 170 0 262 -45 75 -108
112 -196 117 -53 2 -76 -2 -116 -21z" />
    </g>
</svg>