<?xml version="1.0" standalone="no"?>
<!DOCTYPE svg PUBLIC "-//W3C//DTD SVG 20010904//EN"
 "http://www.w3.org/TR/2001/REC-SVG-20010904/DTD/svg10.dtd">
<svg version="1.0" xmlns="http://www.w3.org/2000/svg"
 width="50.000000pt" height="50.000000pt" viewBox="0 0 50.000000 50.000000"
 preserveAspectRatio="xMidYMid meet">

<g transform="translate(0.000000,50.000000) scale(0.100000,-0.100000)"
fill="#000000" stroke="none">
<path d="M164 348 c-57 -56 -107 -110 -110 -121 -9 -27 146 -183 171 -173 13
5 15 14 11 44 -5 28 -1 48 16 82 29 57 76 85 143 85 l50 0 3 69 c3 60 0 72
-19 92 -20 21 -32 24 -92 24 l-70 0 -103 -102z m240 56 c19 -19 4 -57 -21 -52
-26 5 -39 34 -24 52 17 20 26 20 45 0z"/>
<path d="M304 196 c-28 -28 -34 -41 -34 -78 0 -50 18 -82 60 -103 101 -52 207
54 155 155 -21 42 -53 60 -103 60 -37 0 -50 -6 -78 -34z m66 -41 c12 -14 15
-14 31 1 17 16 19 16 25 0 4 -10 2 -22 -4 -28 -7 -7 -7 -16 1 -29 15 -23 1
-37 -22 -22 -13 8 -22 8 -29 1 -6 -6 -19 -8 -28 -4 -16 6 -16 8 -1 23 15 15
15 18 1 34 -9 10 -13 23 -9 28 9 15 20 14 35 -4z"/>
</g>
</svg>
